<?xml version="1.0" encoding="UTF-8"?>
<svg width="88px" height="31px" viewBox="0 0 88 31" version="1.1" xmlns="http://www.w3.org/2000/svg" xmlns:xlink="http://www.w3.org/1999/xlink">
    <!-- Generator: sketchtool 58 (101010) - https://sketch.com -->
    <title>83D2AE0B-B0B1-4044-B3D0-E6B1A9FB3D5E</title>
    <desc>Created with sketchtool.</desc>
    <g id="Page-1" stroke="none" stroke-width="1" fill="none" fill-rule="evenodd">
        <g id="BD-&gt;-Settings-&gt;-Account-management-&gt;-Extras-&gt;-Channel---Checkout-Expand-&gt;-1.0" transform="translate(-46.000000, -32.000000)">
            <g id="nav">
                <g id="Group-5" transform="translate(46.000000, 32.000000)">
                    <g id="klickly_logo_final">
                        <polygon id="Fill-1" fill="#7D7D7D" points="3.5692506 22.9197891 0.0942209213 22.9197891 0.0942209213 0.0392687779 3.5692506 0.0392687779 3.5692506 13.4839002 10.2712037 6.51489601 14.7392091 6.51489601 8.47157967 13.0214961 15.2044772 22.9197891 10.9849084 22.9197891 6.08257936 15.7348505 3.5692506 18.2635715"></polygon>
                        <path d="M25.2879879,4.50335615 C24.8535541,4.07159659 24.6363923,3.55797236 24.6363923,2.96149844 C24.6363923,2.36524342 24.8535541,1.8514003 25.2879879,1.41964074 C25.7223115,0.987881187 26.2392271,0.772165576 26.8393955,0.772165576 C27.4391233,0.772165576 27.9563693,0.987881187 28.3906929,1.41964074 C28.8251267,1.8514003 29.0422885,2.36524342 29.0422885,2.96149844 C29.0422885,3.55797236 28.8251267,4.07159659 28.3906929,4.50335615 C27.9563693,4.93478737 27.4391233,5.15083131 26.8393955,5.15083131 C26.2392271,5.15083131 25.7223115,4.93478737 25.2879879,4.50335615" id="Fill-3" fill="#7D7D7D"></path>
                        <polygon id="Fill-4" fill="#7D7D7D" points="51.194975 22.9197891 47.7197251 22.9197891 47.7197251 0.0392687779 51.194975 0.0392687779 51.194975 13.4839002 57.8967079 6.51489601 62.3646032 6.51489601 56.097194 13.0214961 62.8300915 22.9197891 58.6103025 22.9197891 53.7080836 15.7348505 51.194975 18.2635715"></polygon>
                        <path d="M72.1380636,21.7480189 C71.3106022,22.6939499 70.1523323,23.1665323 68.663144,23.1665323 C67.1738456,23.1665323 65.9793454,22.7247039 65.0793132,21.8406091 C64.1796113,20.9569522 63.7297604,19.6510574 63.7297604,17.9244569 L63.7297604,1.36513726 L67.2046799,1.36513726 L67.2046799,17.5233419 C67.2046799,19.168406 67.8253311,19.9903361 69.0664131,19.9903361 C69.790139,19.9903361 70.3076052,19.7335787 70.6178207,19.2194073 L72.1380636,21.7480189 Z" id="Fill-5" fill="#7D7D7D"></path>
                        <path d="M79.5534902,26.3119418 C82.6143486,26.3119418 84.1453835,24.3791474 84.1453835,20.5145437 L84.1453835,19.4970358 C82.7593801,20.9155492 80.991031,21.6246418 78.8396753,21.6246418 C74.5581075,21.6246418 72.4172134,19.2917174 72.4172134,14.6249931 L72.4172134,6.54589076 L75.892133,6.54589076 L75.892133,13.0831354 C75.892133,14.9950258 76.1870414,16.3469969 76.7763076,17.1380635 C77.3661244,17.9296775 78.3793627,18.3252108 79.8172339,18.3252108 C81.2546645,18.3252108 82.3041332,17.960322 82.9663006,17.2303255 C83.6282477,16.5009856 84.0212753,15.3958125 84.1453835,13.9155722 L84.1453835,6.5149179 L87.6206335,6.5149179 L87.6206335,20.6071339 C87.6206335,23.4641892 86.8705882,25.653741 85.3710484,27.1751325 C83.870958,28.6964146 81.9318086,29.4570557 79.5534902,29.4570557 C77.7328327,29.4570557 76.1350635,29.0252961 74.7596319,28.1618864 C73.38398,27.2984768 72.3860487,26.0652533 71.7653976,24.4616687 L74.8991572,23.1355266 C75.7060257,25.2527354 77.2573232,26.3119418 79.5534902,26.3119418" id="Fill-6" fill="#7D7D7D"></path>
                        <path d="M43.9348985,17.924446 C42.8673697,19.0177991 41.7449999,19.6770943 40.5697712,19.9153555 L40.5697712,23.0440527 C42.5725714,22.7217379 44.3771509,21.7566541 45.9825186,20.1444234 L43.9348985,17.924446 Z" id="Fill-7" fill="#7D7D7D"></path>
                        <path d="M32.7011459,10.4907613 L32.7011459,11.3061247 L35.3016918,11.3061247 C35.4245887,11.1692093 35.5554143,11.0362339 35.6972523,10.9091686 C36.7622482,9.95305919 38.0189677,9.47533284 39.46686,9.47533284 C40.9146422,9.47533284 42.3526235,10.092054 43.7799229,11.3254964 L45.8274329,8.82752934 C44.1102908,7.12150451 42.0112433,6.26816376 39.5289692,6.26816376 C37.0468051,6.26816376 34.9419212,7.05463376 33.2149781,8.62713599 C32.5985116,9.18836869 32.09415,9.81034323 31.6977085,10.4907613 L32.7011459,10.4907613 Z" id="Fill-8" fill="#7D7D7D"></path>
                        <path d="M21.7371718,22.2025758 L20.5065514,22.2025758 L20.5065514,21.2760165 L19.5923134,21.2760165 L19.5923134,17.9139831 L19.5934146,17.9136547 C19.584825,17.7883405 19.5789885,17.6597429 19.5789885,17.5233747 L19.5789885,1.36517009 L16.1039588,1.36517009 L16.1039588,17.9244898 C16.1039588,19.6510902 16.55403,20.956985 17.453842,21.840642 C18.3534338,22.7247367 19.5481542,23.1665652 21.0373425,23.1665652 C21.2806034,23.1665652 21.5116407,23.1491635 21.7371718,23.1238817 L21.7371718,22.2025758 Z" id="Fill-9" fill="#7D7D7D"></path>
                        <polygon id="Fill-10" fill="#7D2B80" points="25.8689068 8.34516253 28.0040744 8.34516253 28.0040744 7.28398619 25.8689068 7.28398619"></polygon>
                        <polygon id="Fill-11" fill="#EF6C19" points="29.1864721 18.0087294 29.1864721 13.6888355 31.3597422 13.6888355 31.3597422 17.8579145 32.4649329 17.8579145 32.4649329 14.7879892 34.5249969 14.7879892 34.5249969 18.8796908 35.5540929 18.8796908 35.5540929 15.8107504 36.7371403 15.8107504 36.7371403 16.8340589 37.766897 16.8340589 37.766897 15.7722258 36.7371403 15.7722258 36.7371403 14.7494646 34.5249969 14.7494646 34.5249969 13.6121147 31.3597422 13.6121147 31.3597422 12.5518139 29.2624567 12.5518139 29.2624567 8.34519536 28.0040854 8.34519536 28.0040854 18.0087294"></polygon>
                        <polygon id="Fill-12" fill="#45B3C2" points="36.6604068 27.4825847 35.6306501 27.4825847 35.6306501 29.5292016 26.8224916 29.5292016 26.8224916 27.4825847 25.7543021 27.4825847 25.7543021 30.6289025 36.6981789 30.6289025 36.6981789 27.4825847 37.7280457 27.4825847 37.7280457 24.1859993 36.6604068 24.1859993"></polygon>
                        <polygon id="Fill-13" fill="#E3B03D" points="37.766886 24.1860868 38.986384 24.1860868 38.986384 16.871675 37.766886 16.871675"></polygon>
                        <polygon id="Fill-14" fill="#CD142E" points="24.6484837 25.2846057 24.6484837 23.1251513 23.6192777 23.1251513 23.6192777 20.9650402 22.5511983 20.9650402 22.5511983 19.8655582 21.5985274 19.8655582 21.5985274 17.7437527 23.5430728 17.7437527 23.5049704 18.8052574 24.6103813 18.8052574 24.6103813 22.4052237 25.8307603 22.4052237 25.8307603 8.34518442 24.6484837 8.34518442 24.6484837 17.7437527 23.6571598 17.7437527 23.6571598 16.60695 20.3394954 16.60695 20.3394954 19.9415128 21.4836695 19.9415128 21.4836695 21.078206 22.5511983 21.078206 22.5511983 23.2015437 23.6192777 23.2015437 23.6192777 25.3236775 24.6484837 25.3236775 24.6484837 27.4825847 25.7543352 27.4825847 25.7543352 25.2846057"></polygon>
                    </g>
                </g>
            </g>
        </g>
    </g>
</svg>